<svg width="280" height="276" viewBox="0 0 280 276" fill="none" xmlns="http://www.w3.org/2000/svg">
<path d="M133.175 0.300915C151.004 -1.64627 159.8 6.04861 171.57 17.8212C198.106 10.0163 224.024 16.5292 225.914 48.307C262.748 53.9772 266.648 71.5155 261.484 104.227C272.538 113.932 279.99 122.365 280 138.005C280.01 153.791 271.483 161.229 261.136 171.638C261.554 173.659 261.952 175.684 262.33 177.711C268.08 208.47 255.325 221.416 225.894 226.826C222.392 259.945 200.135 268.655 170.754 257.651C163.133 267.145 160.128 270.202 148.955 274.877C129.225 278.694 120.25 272.695 107.684 258.166C91.0486 264.74 72.3335 266.228 60.5633 249.995C55.2502 242.659 54.2454 235.78 52.1759 227.179C17.9595 222.64 10.5869 204.297 18.6162 172.446C16.0492 170.107 13.1538 167.449 10.7461 164.977C3.55256 157.557 -0.317833 147.543 0.0204507 137.224C0.507977 121.687 8.21887 113.551 18.6957 103.715C12.8653 69.7705 18.1585 55.2586 53.8076 48.8327C62.8716 16.2043 74.811 9.08151 108.102 18.6207C117.196 8.22094 120.37 4.9613 133.175 0.300915Z" fill="#F7F6F4"/>
<path d="M136.02 16.0464C154.188 15.5061 159.809 30.3773 163.819 45.2387C192.642 18.1483 214.332 28.4103 207.348 68.3753C247.156 57.1837 260.09 82.8883 231.714 111.599C272.069 117.566 274.816 152.285 231.465 162.76C260.677 188.291 249.414 219.158 206.88 206.496C217.198 246.689 193.886 259.889 163.739 230.611C163.112 232.874 162.446 235.127 161.749 237.372C158.148 248.884 154.148 254.663 143.442 260.249C125.662 261.38 119.613 245.799 115.175 231.906C107.315 239.193 95.5948 248.629 84.322 245.969C65.7462 241.587 69.4575 220.047 71.8254 207.233C30.1469 218.67 17.3319 187.815 47.6779 163.327C4.8552 154.544 4.76568 120.013 48.1953 111.844C17.6404 85.3156 31.0523 57.0807 72.0543 68.7776C63.1295 30.8114 86.9885 17.4776 114.787 44.794C119.225 31.3015 122.289 22.1033 136.02 16.0464Z" fill="#7C3AED"/>
</svg>
